<svg xmlns="http://www.w3.org/2000/svg" width="1600" height="1180" viewBox="0 0 1600 1180" font-family="Arial, Helvetica, sans-serif">
  <defs>
    <linearGradient id="bg" x1="0" y1="0" x2="0" y2="1">
      <stop offset="0%" stop-color="#160a28"/><stop offset="60%" stop-color="#20103a"/><stop offset="100%" stop-color="#2a0f30"/>
    </linearGradient>
    <linearGradient id="floor" x1="0" y1="0" x2="0" y2="1">
      <stop offset="0%" stop-color="#241338"/><stop offset="100%" stop-color="#140a22"/>
    </linearGradient>
    <radialGradient id="pink" cx="50%" cy="50%" r="50%"><stop offset="0%" stop-color="#ff2d95" stop-opacity="0.5"/><stop offset="100%" stop-color="#ff2d95" stop-opacity="0"/></radialGradient>
    <radialGradient id="cyan" cx="50%" cy="50%" r="50%"><stop offset="0%" stop-color="#00e5ff" stop-opacity="0.45"/><stop offset="100%" stop-color="#00e5ff" stop-opacity="0"/></radialGradient>
    <filter id="g" x="-30%" y="-30%" width="160%" height="160%"><feGaussianBlur stdDeviation="4" result="b"/><feMerge><feMergeNode in="b"/><feMergeNode in="SourceGraphic"/></feMerge></filter>
    <style>
      .h { font-weight: 800; }
      .mono { font-family: ui-monospace, "Cascadia Mono", Menlo, monospace; }
      .lbl { font-size: 13px; fill: #cdbfe0; }
      .cap { font-size: 11px; fill: #8f81a6; letter-spacing:.07em; text-transform:uppercase; }
      .ttl { font-size: 18px; font-weight: 800; }
    </style>
  </defs>

  <rect width="1600" height="1180" fill="url(#bg)"/>
  <g stroke="#3a2358" stroke-width="1.4" opacity="0.5">
    <path d="M0 1000 L1600 1000"/><path d="M0 1070 L1600 1070"/><path d="M0 1160 L1600 1160"/>
    <path d="M800 1000 L400 1180"/><path d="M800 1000 L1200 1180"/><path d="M800 1000 L120 1180"/><path d="M800 1000 L1480 1180"/>
  </g>

  <text x="50" y="58" class="h" font-size="32" fill="#ffffff">HUB D'SPAWN <tspan fill="#ff2d95">·</tspan> <tspan fill="#00e5ff" font-size="19">maqueta de layout</tspan></text>
  <text x="52" y="84" class="cap">Only Up: Drive — tot el que empeny a jugar, visible al voltant de l'spawn</text>

  <!-- ================= FILA A ================= -->

  <!-- A1 · MUR DE RÈCORDS -->
  <g>
    <rect x="40" y="112" width="470" height="350" rx="14" fill="#1c1030" stroke="#ff2d95" stroke-width="2" filter="url(#g)"/>
    <text x="64" y="146" class="ttl" fill="#ff2d95">🏁 MUR DE RÈCORDS</text>
    <text x="64" y="166" class="cap">5 carteleres físiques + perfil · leaderboard_manager</text>
    <g>
      <g transform="translate(64,182)"><rect width="128" height="70" rx="8" fill="#120a22" stroke="#00e5ff" stroke-width="1.5"/><text x="10" y="22" class="lbl h">🏔️ Alçada</text><text x="10" y="42" class="mono lbl" font-size="11">1. 4400m</text><text x="10" y="58" class="mono lbl" font-size="11">2. 3980m</text></g>
      <g transform="translate(204,182)"><rect width="128" height="70" rx="8" fill="#120a22" stroke="#00e5ff" stroke-width="1.5"/><text x="10" y="22" class="lbl h">⏱️ Temps</text><text x="10" y="42" class="mono lbl" font-size="11">1. 7:12</text><text x="10" y="58" class="mono lbl" font-size="11">2. 8:03</text></g>
      <g transform="translate(344,182)"><rect width="128" height="70" rx="8" fill="#120a22" stroke="#ffd24d" stroke-width="1.5"/><text x="10" y="22" class="lbl h">🪙 Fitxes</text><text x="10" y="42" class="mono lbl" font-size="11">1. 131</text><text x="10" y="58" class="mono lbl" font-size="11">2. 118</text></g>
      <g transform="translate(64,266)"><rect width="128" height="70" rx="8" fill="#120a22" stroke="#ff7a00" stroke-width="1.5"/><text x="10" y="22" class="lbl h">🔥 Ratxa</text><text x="10" y="42" class="mono lbl" font-size="11">1. 6:40</text><text x="10" y="58" class="mono lbl" font-size="11">2. 5:12</text></g>
      <g transform="translate(204,266)"><rect width="128" height="70" rx="8" fill="#120a22" stroke="#39ff14" stroke-width="1.5"/><text x="10" y="22" class="lbl h">😇 Purs</text><text x="10" y="42" class="mono lbl" font-size="11">1. x12</text><text x="10" y="58" class="mono lbl" font-size="11">2. x9</text></g>
      <g transform="translate(344,266)"><rect width="128" height="70" rx="8" fill="#241338" stroke="#ff2d95" stroke-width="1.5"/><text x="10" y="20" class="lbl h" font-size="12">👤 Perfil</text><text x="10" y="40" class="mono lbl" font-size="11">Nivell 14</text><text x="10" y="55" class="mono" font-size="10" fill="#ff7ac0">Corredor Nocturn</text></g>
    </g>
    <rect x="64" y="356" width="200" height="26" rx="13" fill="#00e5ff"/><text x="82" y="374" class="mono h" font-size="12" fill="#001">Board Net vs Garatge</text>
    <text x="64" y="408" class="lbl" font-size="12">Veure't al rànquing = motor de "una altra".</text>
    <text x="64" y="430" class="cap">carteleres al mur de l'spawn</text>
  </g>

  <!-- A2 · LEADERBOARD EN PANTALLA (HUD viu) -->
  <g>
    <rect x="530" y="112" width="540" height="350" rx="14" fill="#1c1030" stroke="#00e5ff" stroke-width="2" filter="url(#g)"/>
    <text x="554" y="146" class="ttl" fill="#00e5ff">📺 LEADERBOARD EN PANTALLA</text>
    <text x="554" y="166" class="cap">HUD viu mentre escales · LiveLeaderboardHUD.verse</text>
    <!-- simulació de pantalla de joc -->
    <rect x="554" y="182" width="492" height="210" rx="12" fill="#0c0518" stroke="#3a2358" stroke-width="1.5"/>
    <text x="574" y="206" class="cap" fill="#6f6188">↓ el que veu el jugador (cantonada)</text>
    <!-- HUD viu cantonada -->
    <g transform="translate(574,220)">
      <rect width="220" height="120" rx="10" fill="#160a28" stroke="#00e5ff" stroke-width="1.5" opacity="0.95"/>
      <text x="14" y="26" class="h" font-size="13" fill="#00e5ff">EN VIU · ALÇADA</text>
      <text x="14" y="50" class="mono lbl">1. Nyx ······ 2140m</text>
      <text x="14" y="72" class="mono lbl">2. R3X ······ 1980m</text>
      <text x="14" y="94" class="mono" font-size="13" fill="#ff2d95" font-weight="700">TU · 3r · 1760m</text>
      <text x="14" y="112" class="cap">refresc 3s</text>
    </g>
    <!-- silueta jugador pujant -->
    <g transform="translate(880,250)" fill="#1a0f30" stroke="#ff2d95" stroke-width="2">
      <rect x="0" y="70" width="120" height="20" rx="6"/><rect x="30" y="30" width="120" height="18" rx="6"/>
      <circle cx="150" cy="16" r="10" fill="#0c0518"/>
    </g>
    <text x="800" y="424" class="lbl" font-size="12.5" text-anchor="middle">"Aquell va per sobre meu" → tensió que empeny a seguir (cursa fins a 16)</text>
  </g>

  <!-- A3 · EL GARATGE -->
  <g>
    <rect x="1090" y="112" width="470" height="350" rx="14" fill="#1c1030" stroke="#00e5ff" stroke-width="2" filter="url(#g)"/>
    <text x="1114" y="146" class="ttl" fill="#00e5ff">🔧 EL GARATGE</text>
    <text x="1114" y="166" class="cap">arbre "+1" · garage_upgrades · gasta Punts</text>
    <g font-size="12">
      <g transform="translate(1114,180)"><rect width="210" height="38" rx="8" fill="#120a22" stroke="#ff2d95" stroke-width="1.3"/><text x="12" y="16" class="lbl h">🔧 Motor</text><text x="12" y="30" class="lbl" font-size="10">+2% velocitat</text><text x="196" y="24" text-anchor="end" class="mono" fill="#00e5ff">3/5</text></g>
      <g transform="translate(1336,180)"><rect width="210" height="38" rx="8" fill="#120a22" stroke="#ff2d95" stroke-width="1.3"/><text x="12" y="16" class="lbl h">💨 Nitro</text><text x="12" y="30" class="lbl" font-size="10">+1 càrrega</text><text x="196" y="24" text-anchor="end" class="mono" fill="#00e5ff">1/3</text></g>
      <g transform="translate(1114,226)"><rect width="210" height="38" rx="8" fill="#120a22" stroke="#ffd24d" stroke-width="1.3"/><text x="12" y="16" class="lbl h">💰 Turbo-caixa</text><text x="12" y="30" class="lbl" font-size="10">+10% diners</text><text x="196" y="24" text-anchor="end" class="mono" fill="#00e5ff">4/5</text></g>
      <g transform="translate(1336,226)"><rect width="210" height="38" rx="8" fill="#120a22" stroke="#ffd24d" stroke-width="1.3"/><text x="12" y="16" class="lbl h">🧲 Imant</text><text x="12" y="30" class="lbl" font-size="10">+75 radi</text><text x="196" y="24" text-anchor="end" class="mono" fill="#00e5ff">2/4</text></g>
      <g transform="translate(1114,272)"><rect width="210" height="38" rx="8" fill="#120a22" stroke="#39ff14" stroke-width="1.3"/><text x="12" y="16" class="lbl h">⛽ Dipòsit</text><text x="12" y="30" class="lbl" font-size="10">−2 cost CP</text><text x="196" y="24" text-anchor="end" class="mono" fill="#00e5ff">1/3</text></g>
      <g transform="translate(1336,272)"><rect width="210" height="38" rx="8" fill="#120a22" stroke="#39ff14" stroke-width="1.3"/><text x="12" y="16" class="lbl h">🪂 Suspensió</text><text x="12" y="30" class="lbl" font-size="10">+0.1s aterr.</text><text x="196" y="24" text-anchor="end" class="mono" fill="#00e5ff">0/3</text></g>
    </g>
    <g transform="translate(1114,320)"><rect width="432" height="40" rx="10" fill="#2c1024" stroke="#ff2d95" stroke-width="2"/><text x="14" y="18" class="h" font-size="13" fill="#ff7ac0">✨ PRESTIGI</text><text x="14" y="33" class="lbl" font-size="11">reset → +25% global permanent (∞)</text><text x="418" y="26" text-anchor="end" class="mono h" fill="#ff2d95">P.2</text></g>
    <text x="1114" y="386" class="lbl" font-size="12">Punts: <tspan class="mono h" fill="#00e5ff">+3</tspan> · guanyats pujant de nivell</text>
    <rect x="1114" y="400" width="300" height="24" rx="12" fill="#241338" stroke="#8f81a6"/><text x="1130" y="417" class="mono" font-size="11" fill="#cdbfe0">Conducció NO compta al board Net</text>
    <text x="1114" y="448" class="cap">al garatge del hub</text>
  </g>

  <!-- ================= FILA B ================= -->

  <!-- B1 · MEET / SPAWN -->
  <g>
    <ellipse cx="180" cy="640" rx="150" ry="34" fill="url(#pink)"/><ellipse cx="360" cy="655" rx="140" ry="32" fill="url(#cyan)"/>
    <rect x="40" y="490" width="470" height="220" rx="14" fill="url(#floor)" stroke="#00e5ff" stroke-width="2" filter="url(#g)"/>
    <text x="64" y="524" class="ttl" fill="#00e5ff">🚗 MEET / SPAWN</text>
    <text x="64" y="544" class="cap">vehicle_spawner: conduïbles · underglow</text>
    <g stroke-width="2">
      <g transform="translate(70,584)"><rect width="100" height="38" rx="11" fill="#241338" stroke="#ff2d95"/><circle cx="22" cy="42" r="10" fill="#05010f" stroke="#00e5ff"/><circle cx="78" cy="42" r="10" fill="#05010f" stroke="#00e5ff"/></g>
      <g transform="translate(200,584)"><rect width="100" height="38" rx="11" fill="#241338" stroke="#00e5ff"/><circle cx="22" cy="42" r="10" fill="#05010f" stroke="#ff2d95"/><circle cx="78" cy="42" r="10" fill="#05010f" stroke="#ff2d95"/></g>
      <g transform="translate(330,588)"><rect width="80" height="32" rx="10" fill="#241338" stroke="#ffd24d"/><circle cx="18" cy="36" r="9" fill="#05010f" stroke="#ffd24d"/><circle cx="62" cy="36" r="9" fill="#05010f" stroke="#ffd24d"/></g>
    </g>
    <text x="64" y="676" class="lbl" font-size="12">Apareixes aquí. Portal d'ascens al mig ▼</text>
  </g>

  <!-- B2 · TAULELL DE MISSIONS -->
  <g>
    <rect x="530" y="490" width="540" height="220" rx="14" fill="#1c1030" stroke="#9b59b6" stroke-width="2" filter="url(#g)"/>
    <text x="554" y="524" class="ttl" fill="#c98be0">📋 TAULELL DE MISSIONS</text>
    <text x="554" y="544" class="cap">daily_challenge_manager + accolades</text>
    <g font-size="11">
      <g transform="translate(554,556)"><rect width="160" height="136" rx="10" fill="#120a22" stroke="#00e5ff" stroke-width="1.3"/><text x="12" y="24" class="h" fill="#00e5ff" font-size="13">DIÀRIES</text><text x="12" y="46" class="lbl">☐ Secció 4</text><text x="12" y="66" class="lbl">☑ 40 fitxes</text><text x="12" y="86" class="lbl">☐ Clear sense CP</text><text x="12" y="116" class="cap">24h · +30 KM</text></g>
      <g transform="translate(724,556)"><rect width="160" height="136" rx="10" fill="#120a22" stroke="#ffd24d" stroke-width="1.3"/><text x="12" y="24" class="h" fill="#ffd24d" font-size="13">SETMANALS</text><text x="12" y="46" class="lbl">☐ Cim ×3</text><text x="12" y="66" class="lbl">☐ 200 fitxes</text><text x="12" y="86" class="lbl">☐ 5 diàries</text><text x="12" y="116" class="cap">7 dies · +KM</text></g>
      <g transform="translate(894,556)"><rect width="160" height="136" rx="10" fill="#120a22" stroke="#39ff14" stroke-width="1.3"/><text x="12" y="24" class="h" fill="#39ff14" font-size="13">CARRERA</text><text x="12" y="46" class="lbl">☑ Primer clear</text><text x="12" y="66" class="lbl">☐ Tots secrets</text><text x="12" y="86" class="lbl">☐ Sub-8 min</text><text x="12" y="116" class="cap">1 vegada · badge</text></g>
    </g>
  </g>

  <!-- B3 · RECOMPENSES PER TEMPS -->
  <g>
    <rect x="1090" y="490" width="470" height="220" rx="14" fill="#1c1030" stroke="#ff7a00" stroke-width="2" filter="url(#g)"/>
    <text x="1114" y="524" class="ttl" fill="#ff9a3d">⏳ RECOMPENSES PER TEMPS</text>
    <text x="1114" y="544" class="cap">session_rewards + login diari</text>
    <g class="mono" font-size="12" fill="#cdbfe0">
      <text x="1114" y="574">5 min ····· +10 KM  ✅</text>
      <text x="1114" y="598">10 min ···· +20 KM  ✅</text>
      <text x="1114" y="622">20 min ···· +40 KM  ▸ 6:12</text>
      <text x="1114" y="646">30/45/60 · +60/80/120 KM</text>
    </g>
    <rect x="1114" y="662" width="432" height="32" rx="10" fill="#241338" stroke="#ff7a00"/><text x="1130" y="683" class="lbl" font-size="12">🔥 Ratxa de login: <tspan class="h" fill="#ff9a3d">dia 4</tspan> · dia 7 = premi gros</text>
  </g>

  <!-- ================= FILA C ================= -->

  <!-- C1 · BOTIGA PRIVADA -->
  <g>
    <rect x="40" y="738" width="470" height="330" rx="14" fill="#1c1030" stroke="#ffd24d" stroke-width="2" filter="url(#g)"/>
    <text x="64" y="772" class="ttl" fill="#ffd24d">🛒 BOTIGA PRIVADA</text>
    <text x="64" y="792" class="cap">per jugador · cosmètics amb KM · PrivateShop.verse</text>
    <g font-size="12.5">
      <g transform="translate(64,806)"><rect width="382" height="38" rx="8" fill="#120a22" stroke="#ff2d95" stroke-width="1.3"/><text x="12" y="24" class="lbl h">Rastre de neó rosa</text><text x="368" y="24" text-anchor="end" class="mono" fill="#39ff14">COMPRAT ✓</text></g>
      <g transform="translate(64,850)"><rect width="382" height="38" rx="8" fill="#120a22" stroke="#00e5ff" stroke-width="1.3"/><text x="12" y="24" class="lbl h">Rastre de neó cian</text><text x="368" y="24" text-anchor="end" class="mono" fill="#ffd24d">60 KM</text></g>
      <g transform="translate(64,894)"><rect width="382" height="38" rx="8" fill="#120a22" stroke="#8f81a6" stroke-width="1.3"/><text x="12" y="24" class="lbl h">Skin del cotxe-trofeu</text><text x="368" y="24" text-anchor="end" class="mono" fill="#ffd24d">120 KM</text></g>
      <g transform="translate(64,938)"><rect width="382" height="38" rx="8" fill="#120a22" stroke="#8f81a6" stroke-width="1.3"/><text x="12" y="24" class="lbl h">Vehicle d'entrada</text><text x="368" y="24" text-anchor="end" class="mono" fill="#ffd24d">100 KM</text></g>
      <g transform="translate(64,982)"><rect width="382" height="38" rx="8" fill="#120a22" stroke="#8f81a6" stroke-width="1.3"/><text x="12" y="24" class="lbl h">Emote al cim</text><text x="368" y="24" text-anchor="end" class="mono" fill="#ffd24d">80 KM</text></g>
    </g>
    <text x="64" y="1046" class="lbl" font-size="12">Compres persistents · només per a tu (no afecten els altres)</text>
  </g>

  <!-- C2 · COMENÇA L'ASCENS -->
  <g transform="translate(600,760)">
    <rect x="0" y="0" width="400" height="210" rx="16" fill="#2c1024" stroke="#ff2d95" stroke-width="2.5" filter="url(#g)"/>
    <text x="200" y="48" text-anchor="middle" class="h" font-size="24" fill="#ffffff">▲ COMENÇA L'ASCENS</text>
    <text x="200" y="74" text-anchor="middle" class="cap">torre de 4400m · 7 seccions</text>
    <g transform="translate(200,130)" filter="url(#g)"><path d="M0 44 L-38 44 L-38 12 L-66 12 L0 -44 L66 12 L38 12 L38 44 Z" fill="#ff2d95" stroke="#00e5ff" stroke-width="3"/></g>
    <text x="200" y="196" text-anchor="middle" class="lbl" font-size="12.5">Toggle: <tspan fill="#39ff14">Sortida Neta</tspan> / <tspan fill="#00e5ff">Garatge</tspan></text>
  </g>

  <!-- C3 · RECORDATORI DE LIKE -->
  <g>
    <rect x="1090" y="738" width="470" height="330" rx="14" fill="#1c1030" stroke="#e0417a" stroke-width="2" filter="url(#g)"/>
    <text x="1114" y="772" class="ttl" fill="#ff7ac0">❤️ RECORDATORI DE LIKE</text>
    <text x="1114" y="792" class="cap">LikePrompt.verse · només recorda</text>
    <!-- toast -->
    <g transform="translate(1114,812)">
      <rect width="422" height="86" rx="14" fill="#2c1024" stroke="#ff2d95" stroke-width="2"/>
      <text x="20" y="34" class="h" font-size="16" fill="#ffffff">T'ho passes bé? ❤️</text>
      <text x="20" y="60" class="lbl" font-size="13">Deixa un like i guarda el mapa!</text>
      <text x="404" y="52" text-anchor="end" font-size="30">👍</text>
    </g>
    <text x="1114" y="932" class="lbl" font-size="12.5">Apareix en moments alts: cim, nou rècord.</text>
    <!-- avís de política -->
    <g transform="translate(1114,948)">
      <rect width="422" height="98" rx="12" fill="#351610" stroke="#ff6b3d" stroke-width="1.5"/>
      <text x="16" y="26" class="h" font-size="13" fill="#ff9a3d">⚠️ Política d'Epic</text>
      <text x="16" y="50" class="lbl" font-size="12">NO es pot detectar ni <tspan class="h" fill="#ff9a3d">recompensar</tspan> el like</text>
      <text x="16" y="70" class="lbl" font-size="12">(engagement farming = prohibit).</text>
      <text x="16" y="90" class="lbl" font-size="12">Només un recordatori amable, sense premi.</text>
    </g>
  </g>

  <text x="800" y="1150" text-anchor="middle" class="cap">Sempre hi ha un "+1" a la vista i una raó per tornar a pujar · maqueta de layout, no a escala</text>
</svg>
